<svg width="30" height="23" fill="none" xmlns="http://www.w3.org/2000/svg"><path d="M6.133 0l-.234.781-4.61 17L.938 19H7.03l-.742 2.781L5.938 23h8.71l.196-.813 1.289-4.812h3.36c4.7 0 8.832-2.445 9.882-6.375.551-2.066-.034-3.816-1.25-5-.988-.96-2.325-1.54-3.711-1.813a4.868 4.868 0 00-1.602-2.468C21.392.535 19.42 0 17.578 0H6.133zm2.03 2h9.415c1.226 0 2.578.379 3.437 1.094.86.715 1.363 1.734.9 3.469-.825 3.093-3.746 4.812-7.422 4.812H9.1l-.195.781L7.618 17H4.061L8.165 2zm3.165 1.469l-.234.781-1.289 4.625-.351 1.219h4.412c2.223 0 4.142-1.293 4.688-3.031h.04c.005-.02-.005-.043 0-.063.273-.875.097-1.773-.508-2.438-.62-.68-1.665-1.093-2.773-1.093h-3.986zm1.992 2h1.992c.392 0 .597.09.743.25.146.16.249.418.116.812v.031c-.233.81-1.43 1.532-2.303 1.532h-1.29l.742-2.625zm11.172.875c.66.215 1.28.508 1.72.937.727.707 1.127 1.684.702 3.281-.825 3.094-3.745 4.813-7.422 4.813H14.1l-.195.781L12.618 21H9.061l.548-2h.038l.196-.813 1.289-4.812h3.36c4.7 0 8.832-2.445 9.882-6.375.059-.227.082-.438.117-.656z" fill="#262626"/></svg>