<svg width="30" height="40" fill="none" xmlns="http://www.w3.org/2000/svg"><path d="M29.407 9.39a.59.59 0 00-.586.587V38.78c0 .024-.015.04-.039.04H1.22c-.024 0-.04-.016-.04-.04V1.203c0-.023.016-.039.04-.039h20.703v5.68c0 .672.547 1.21 1.21 1.21H29.4a.58.58 0 00.54-.359.591.591 0 00-.125-.64L22.93.172l-.016-.016a.584.584 0 00-.39-.156H1.22C.548 0 .009.547.009 1.21v37.58c0 .67.547 1.21 1.21 1.21h27.555c.672 0 1.211-.547 1.211-1.21V9.976a.578.578 0 00-.578-.586zM23.102 2l4.891 4.89h-4.851c-.024 0-.04-.015-.04-.038V2z" fill="#262626"/><path d="M26.235 14.367a.59.59 0 00-.586-.586H4.353a.59.59 0 00-.586.586v11.274c0 .32.265.586.586.586h21.289a.59.59 0 00.585-.586l.008-11.274zM15.04 25.047H4.938V22.46H15.04v2.586zm0-3.75H4.938V18.71H15.04v2.586zm0-3.758H4.938v-2.586H15.04v2.586zm5.008 7.508h-3.836V22.46h3.836v2.586zm0-3.75h-3.836V18.71h3.836v2.586zm0-3.758h-3.836v-2.586h3.836v2.586zm5.016 7.508h-3.837V22.46h3.837v2.586zm0-3.75h-3.837V18.71h3.837v2.586zm0-3.758h-3.837v-2.586h3.837v2.586zm.586 12.523h-5.008a.59.59 0 00-.586.586c0 .32.265.586.586.586h5.007a.59.59 0 00.586-.586.59.59 0 00-.586-.586zm0 2.5h-3.758a.59.59 0 00-.586.586c0 .32.265.586.586.586h3.757a.59.59 0 00.586-.586.59.59 0 00-.586-.586zM15.39 4.383h-2.508a.59.59 0 00-.586.586c0 .32.266.585.586.585h2.508a.59.59 0 00.586-.585.59.59 0 00-.586-.586zm4.539 2.507h-7.047a.59.59 0 00-.586.587c0 .32.266.586.586.586h7.047a.585.585 0 100-1.172zm-2.664 2.5h-4.383a.59.59 0 00-.586.587c0 .32.266.586.586.586h4.383a.585.585 0 100-1.172zm-9.702.938H6.212c-.133 0-.25.11-.25.25V11.6c0 .133-.11.25-.25.25h-.555a.252.252 0 01-.25-.25v-1.023c0-.133-.11-.25-.25-.25H4.01a.252.252 0 01-.25-.25V9.71c0-.133.11-.25.25-.25h.648c.133 0 .25-.11.25-.25v-.258c0-.133-.11-.25-.25-.25H4.01a.252.252 0 01-.25-.25v-.367c0-.133.11-.25.25-.25h.648c.133 0 .25-.11.25-.25V4.062c0-.133.11-.25.25-.25h2.711c.86 0 1.54.219 2.047.657.5.437.758 1.03.758 1.773 0 .781-.242 1.39-.727 1.812-.484.422-1.172.641-2.062.641h-1.68c-.133 0-.25.11-.25.25v.258c0 .133.11.25.25.25h1.352c.132 0 .25.11.25.25v.367a.242.242 0 01-.243.258zM5.962 7.586c0 .133.11.25.25.25h1.664c.57 0 1-.133 1.305-.407.297-.265.445-.664.445-1.18 0-.468-.156-.843-.46-1.132-.313-.29-.728-.438-1.251-.438H6.22c-.133 0-.25.11-.25.25v2.657h-.008z" fill="#262626"/></svg>