<svg width="32" height="40" fill="none" xmlns="http://www.w3.org/2000/svg"><path d="M31.17 23.96h-.874v-4.663a3.158 3.158 0 00-3.156-3.157h-1.063l3.086-5.843a2.56 2.56 0 00.18-1.961 2.565 2.565 0 00-1.266-1.516L16.21.57a2.582 2.582 0 00-3.484 1.078L5.077 16.14H3.171a3.158 3.158 0 00-3.156 3.157v17.086a3.158 3.158 0 003.156 3.156H27.14a3.158 3.158 0 003.156-3.156v-4.664h.875a.767.767 0 00.765-.766v-6.226a.767.767 0 00-.765-.766zM14.086 2.368a1.053 1.053 0 011.414-.437l11.867 6.242a1.048 1.048 0 01.445 1.414l-3.468 6.562H22.28l1.953-3.703a.773.773 0 00-.32-1.039 2.115 2.115 0 01-1.039-1.25 2.099 2.099 0 01.149-1.61.773.773 0 00-.32-1.04l-4.024-2.115a.762.762 0 00-1.031.32 2.144 2.144 0 01-2.875.89.762.762 0 00-1.032.32l-4.875 9.227H6.804l7.281-13.78zm7.328 8.235c.211.68.61 1.273 1.148 1.726l-2.015 3.813H10.6l4.171-7.907a3.677 3.677 0 003.797-1.172l2.813 1.477a3.637 3.637 0 00.031 2.063zm7.344 25.78c0 .9-.727 1.626-1.625 1.626H3.17a1.624 1.624 0 01-1.625-1.625V19.297c0-.899.726-1.625 1.625-1.625h23.97c.898 0 1.625.726 1.625 1.625v4.664h-3a3.888 3.888 0 00-3.883 3.883 3.881 3.881 0 003.883 3.875h2.992v4.664zm1.648-6.195h-4.64a2.346 2.346 0 01-2.344-2.343 2.35 2.35 0 012.344-2.344h4.64v4.687z" fill="#262626"/></svg>