<svg width="40" height="38" fill="none" xmlns="http://www.w3.org/2000/svg"><path d="M31.11 5.656a5180.056 5180.056 0 00-9.297 4.367c0 .04.007.078.007.117h.625c4.297 0 8.594.008 12.89-.007 1.345 0 2.438.484 3.25 1.554.509.672.75 1.446.75 2.282.009 6.695.017 13.382 0 20.078-.007 2.218-1.67 3.82-3.944 3.836-2.094.023-4.188.007-6.282.007-5.593 0-11.187 0-16.773-.007-.195 0-.399 0-.586-.04-.344-.07-.508-.312-.508-.656.008-.336.211-.523.531-.57.196-.031.391-.023.586-.023h22.922c1.383 0 2.313-.618 2.657-1.797.093-.313.124-.657.124-.985.008-6.57.008-13.14 0-19.71 0-1.626-1.07-2.688-2.695-2.688H4.078c-1.781 0-2.797 1.023-2.797 2.812v19.578c0 1.774 1.008 2.79 2.774 2.79h4.343c.165 0 .375-.04.485.046.187.157.43.383.437.586 0 .203-.226.453-.414.594-.133.102-.375.063-.57.07-1.414 0-2.836.008-4.25 0-2.484-.015-4.063-1.6-4.063-4.086C0 27.203 0 20.617 0 14.031c0-1.984 1.266-3.531 3.203-3.844.695-.11 1.414-.039 2.117-.062.203-.008.422-.04.61-.125a7012.447 7012.447 0 0017.328-8.188C24.133 1.398 25 .984 25.875.586c1.773-.813 4.172-.399 5.14 1.812.782 1.781 1.65 3.516 2.477 5.274.227.484.164.797-.18.976-.374.196-.734.04-.976-.445-.344-.703-.672-1.414-1.008-2.125-.062-.133-.133-.258-.219-.422zM8.89 10.039l.024.086c.063.008.117.008.18.008 3.062 0 6.117 0 9.18-.008.187 0 .39-.055.554-.133 3.469-1.617 6.93-3.242 10.39-4.86.446-.21.884-.43 1.345-.648-.22-.476-.43-.906-.633-1.344-.711-1.562-2.094-2.07-3.657-1.328-4.914 2.32-9.828 4.649-14.742 6.969-.883.414-1.765.836-2.64 1.258z" fill="#262626"/><path d="M23.952 30.36c.016-2.508 2.578-4.188 4.89-3.235.188.078.47.07.657-.008a3.532 3.532 0 014.164 1.164 3.516 3.516 0 01-.031 4.25c-1.023 1.297-2.695 1.72-4.18 1.094a.841.841 0 00-.57 0c-2.352.992-4.945-.727-4.93-3.265zm1.274 0a2.22 2.22 0 002.21 2.257 2.211 2.211 0 002.266-2.21 2.227 2.227 0 00-2.219-2.266 2.24 2.24 0 00-2.257 2.219zm5.101-2.11c.906 1.813.906 2.172.016 4.266.789.273 1.726-.04 2.273-.758.61-.797.633-1.82.07-2.656a2.149 2.149 0 00-2.359-.852zM6.983 13.852c.5 0 .993-.008 1.493 0 1.125.023 1.93.812 1.953 1.937.015 1.024.015 2.047 0 3.07-.016 1.102-.774 1.891-1.867 1.922a54.82 54.82 0 01-3.204 0c-1.101-.039-1.843-.82-1.859-1.93a100.59 100.59 0 010-3.07c.016-1.117.836-1.914 1.961-1.937.5 0 1.016.008 1.523.008zm2.164 3.484c-.007-.5.008-.992-.007-1.492-.016-.469-.227-.703-.688-.711a95.16 95.16 0 00-2.984 0c-.446.008-.68.226-.688.664a97.54 97.54 0 000 3.023c.008.461.211.672.672.68 1.008.016 2.016.023 3.024.008.468-.008.664-.235.671-.727.008-.484 0-.96 0-1.445zm.947 15.625h-4.79c-.18 0-.398.047-.53-.039-.204-.133-.462-.351-.477-.547-.016-.203.21-.445.375-.625.078-.086.28-.062.43-.062h9.937c.133 0 .273-.008.406.023.336.078.516.305.5.656-.023.344-.21.57-.57.586-.485.024-.961.016-1.445.016-1.282-.008-2.563-.008-3.836-.008zm-2.947-4.063c.687 0 1.382-.007 2.07 0 .484.008.719.211.734.61.016.414-.226.672-.71.68a427.03 427.03 0 01-4.235 0c-.46-.008-.734-.29-.727-.688.008-.383.25-.586.75-.586.704-.016 1.407-.008 2.118-.016 0 .008 0 .008 0 0zm24.884-4.835c.016-.196.016-.391.063-.579.07-.32.297-.492.617-.484.328 0 .555.188.594.516.039.343.039.687.023 1.039-.016.375-.226.593-.601.601-.391.016-.625-.195-.664-.586-.016-.164 0-.328 0-.5-.016-.008-.024-.008-.032-.008zm-20.04.031c-.008.18-.008.36-.031.539-.047.336-.258.508-.586.516-.344.015-.601-.157-.64-.5-.04-.367-.04-.75 0-1.117.039-.344.273-.54.624-.532.352.008.555.211.602.555.023.18.023.36.031.539zm4.648-.039c0 .18.015.359 0 .538-.04.375-.281.555-.633.563-.344 0-.578-.188-.61-.531a5.905 5.905 0 01-.007-.985c.023-.406.312-.671.664-.64.39.039.578.273.601.656-.007.125-.007.258-.015.399zm19.095.055c0 .163.016.328 0 .492-.047.375-.28.554-.648.554-.344 0-.578-.187-.61-.539a5.674 5.674 0 010-1.031c.032-.36.25-.578.618-.586.367-.008.586.21.633.57.023.172.007.36.007.54zm-13.164-.016c.007-.196 0-.39.038-.578.055-.32.274-.5.586-.516.32-.016.579.148.617.469.055.398.063.804.016 1.203-.039.344-.305.508-.648.484-.336-.023-.555-.21-.586-.562-.016-.164 0-.328 0-.492-.008-.008-.016-.008-.024-.008zm8.351-.016c0 .164.016.336 0 .5-.039.367-.266.578-.633.57-.367-.007-.593-.203-.625-.578a7.015 7.015 0 01-.008-.906c.024-.414.282-.68.641-.68.36 0 .602.258.633.688.008.133 0 .273-.008.406zm-2.405.032c0 .164.016.335 0 .492-.04.351-.258.539-.602.547-.351.015-.593-.172-.633-.516a5.42 5.42 0 01.008-1.125c.04-.344.282-.54.633-.523.344.015.547.226.594.57.023.18.023.36.031.539-.015.015-.023.015-.031.015zm-7.072-.008c0 .148.008.304 0 .453-.023.375-.234.578-.601.601-.36.024-.633-.219-.657-.594a6.373 6.373 0 010-.945c.04-.375.258-.625.649-.617.398.008.586.273.61.648.007.149 0 .305 0 .454zm-15.568-.024c.023-.203.016-.414.062-.617.07-.32.32-.523.625-.453.22.055.508.274.555.469.094.383.063.805.024 1.203a.5.5 0 01-.61.46c-.219-.046-.453-.241-.586-.437-.101-.156-.047-.406-.07-.625zm-2.391.016c.008-.18 0-.367.032-.54.062-.366.289-.562.656-.554.351.016.562.227.586.57.031.329.023.665.008.993-.024.375-.25.578-.618.586-.39 0-.617-.211-.648-.61-.008-.148 0-.304 0-.453-.008.008-.016.008-.016.008zm15.592.07c-.015.14.024.406-.086.57-.132.188-.414.399-.617.383-.195-.015-.484-.265-.547-.46-.093-.321-.047-.68-.03-1.032.015-.383.226-.625.624-.633.375-.008.57.235.625.586.024.164.016.336.031.586zm-9.507-.062c0 .18.03.367-.008.539-.07.343-.305.515-.649.507-.344-.015-.57-.203-.594-.562a8.817 8.817 0 01-.007-.906c.015-.43.257-.688.609-.703.351-.008.617.257.656.664.016.148 0 .304 0 .453 0 .008-.008.008-.008.008z" fill="#262626"/></svg>