<svg width="60" height="25" fill="none" xmlns="http://www.w3.org/2000/svg"><path d="M28.378 4.011v6.012h3.71c.884 0 1.611-.303 2.193-.885.594-.594.885-1.297.885-2.12 0-.8-.29-1.504-.885-2.098-.582-.606-1.309-.909-2.194-.909h-3.709zm0 8.133v6.982H26.16V1.89h5.879c1.49 0 2.763.497 3.806 1.49 1.066.995 1.588 2.207 1.588 3.637 0 1.455-.534 2.679-1.588 3.66-1.03.982-2.291 1.467-3.806 1.467h-3.66zm11.298 3.37c0 .582.243 1.055.74 1.442.484.388 1.066.582 1.72.582.934 0 1.758-.34 2.498-1.03.727-.69 1.09-1.503 1.09-2.424-.69-.546-1.648-.824-2.884-.824-.897 0-1.649.218-2.255.654-.606.424-.909.958-.909 1.6zm2.873-8.57c1.636 0 2.933.437 3.879 1.31.945.872 1.418 2.072 1.418 3.6v7.272h-2.121V17.49h-.097c-.91 1.345-2.134 2.024-3.66 2.024-1.298 0-2.389-.388-3.262-1.151-.872-.776-1.309-1.734-1.309-2.885 0-1.224.461-2.194 1.382-2.91.921-.726 2.158-1.078 3.697-1.078 1.321 0 2.4.242 3.249.727v-.509c0-.764-.303-1.418-.91-1.963a3.142 3.142 0 00-2.145-.8c-1.236 0-2.218.52-2.933 1.563l-1.952-1.224c1.067-1.564 2.655-2.34 4.764-2.34zM60 7.327l-7.393 16.994h-2.29l2.75-5.951-4.86-11.043h2.4l3.527 8.473h.036l3.43-8.473H60z" fill="#5F6368"/><path d="M19.431 10.639c0-.703-.06-1.37-.17-2.013H9.905v3.819h5.358a4.549 4.549 0 01-1.976 3.005v2.473h3.2c1.867-1.721 2.945-4.278 2.945-7.284z" fill="#4285F4"/><path d="M9.904 20.312c2.679 0 4.921-.873 6.57-2.388l-3.2-2.473c-.885.594-2.037.945-3.37.945-2.582 0-4.776-1.745-5.564-4.084H1.056v2.545a9.896 9.896 0 008.848 5.455z" fill="#34A853"/><path d="M4.34 12.312a5.785 5.785 0 01-.316-1.891c0-.655.11-1.297.315-1.891V5.985H1.055A9.782 9.782 0 000 10.433c0 1.6.376 3.115 1.055 4.448l3.284-2.57z" fill="#FABB05"/><path d="M9.904 4.433c1.454 0 2.764.497 3.806 1.479l2.824-2.825c-1.721-1.6-3.951-2.581-6.63-2.581A9.896 9.896 0 001.056 5.96l3.297 2.545c.775-2.327 2.97-4.072 5.551-4.072z" fill="#E94235"/></svg>