<svg width="55" height="24" fill="none" xmlns="http://www.w3.org/2000/svg"><path d="M11.046 3.029c.634-.795 1.074-1.869.956-2.964-.934.043-2.073.612-2.738 1.417-.591.688-1.117 1.805-.978 2.846 1.053.086 2.105-.526 2.76-1.3zm.944 1.503c-1.524-.086-2.813.86-3.543.86s-1.836-.817-3.05-.795c-1.568.021-3.018.912-3.812 2.32-1.633 2.824-.43 7.001 1.16 9.3.773 1.138 1.707 2.383 2.931 2.34 1.16-.043 1.611-.752 3.018-.752 1.407 0 1.815.752 3.04.73 1.266-.02 2.072-1.138 2.834-2.276.892-1.3 1.246-2.545 1.267-2.61-.021-.02-2.448-.955-2.48-3.747-.022-2.341 1.911-3.458 1.997-3.523-1.063-1.621-2.77-1.804-3.361-1.847zm13.264-3.168c3.308 0 5.616 2.277 5.616 5.606 0 3.329-2.351 5.627-5.691 5.627h-3.662v5.831h-2.642V1.364h6.379zm-3.748 9h3.04c2.308 0 3.618-1.246 3.618-3.394s-1.31-3.383-3.608-3.383h-3.05v6.776zm10.051 4.521c0-2.17 1.664-3.512 4.617-3.673l3.405-.204v-.956c0-1.385-.935-2.212-2.492-2.212-1.482 0-2.395.709-2.62 1.815H32.06c.14-2.245 2.051-3.898 5.134-3.898 3.017 0 4.94 1.6 4.94 4.091v8.57h-2.449v-2.04h-.054c-.72 1.385-2.287 2.255-3.92 2.255-2.459 0-4.155-1.515-4.155-3.748zm8.022-1.128v-.977l-3.06.193c-1.526.108-2.385.784-2.385 1.847 0 1.085.902 1.794 2.266 1.794 1.783-.011 3.179-1.235 3.179-2.857zm4.853 9.236V20.92c.194.043.612.043.827.043 1.181 0 1.815-.494 2.212-1.772 0-.021.226-.752.226-.773L43.208 5.971h2.76l3.146 10.117h.043L52.304 5.97h2.695l-4.66 13.08c-1.063 3.018-2.288 3.985-4.865 3.985-.215.01-.86-.011-1.042-.043z" fill="#262626"/></svg>