<svg fill="none" xmlns="http://www.w3.org/2000/svg" width="116" height="85"><path d="M10.223 12.77C18.29 4.85 30.497.834 46.5.834h5.75v14.682l-4.623.84c-7.878 1.426-13.358 4.233-16.29 8.353-1.53 2.22-2.398 4.76-2.518 7.375h17.68c1.526 0 2.988.549 4.067 1.526 1.078.977 1.684 2.301 1.684 3.683V73.75c0 5.745-5.158 10.417-11.5 10.417H6.25c-1.525 0-2.988-.55-4.066-1.526C1.106 81.664.5 80.34.5 78.958V52.917l.017-15.203c-.052-.579-1.144-14.277 9.706-24.943zM104 84.168H69.5c-1.525 0-2.988-.55-4.066-1.526-1.078-.977-1.684-2.301-1.684-3.683V52.917l.017-15.203c-.052-.579-1.144-14.277 9.706-24.943C81.54 4.849 93.748.833 109.75.833h5.75v14.682l-4.623.84c-7.878 1.426-13.358 4.233-16.29 8.353-1.53 2.22-2.398 4.76-2.519 7.375h17.682c1.525 0 2.987.549 4.066 1.526 1.078.977 1.684 2.301 1.684 3.683V73.75c0 5.745-5.158 10.417-11.5 10.417z" fill="#929292"/></svg>