<svg width="40" height="38" viewBox="0 0 40 38" fill="none" xmlns="http://www.w3.org/2000/svg">
<path d="M31.1094 5.65602C27.9922 7.11695 24.8984 8.57008 21.8125 10.0232C21.8125 10.0623 21.8203 10.1013 21.8203 10.1404C22.0312 10.1404 22.2422 10.1404 22.4453 10.1404C26.7422 10.1404 31.0391 10.1482 35.3359 10.1326C36.6797 10.1326 37.7734 10.617 38.5859 11.6873C39.0938 12.3591 39.3359 13.1326 39.3359 13.9685C39.3438 20.6638 39.3516 27.3513 39.3359 34.0466C39.3281 36.2654 37.6641 37.867 35.3906 37.8826C33.2969 37.906 31.2031 37.8904 29.1094 37.8904C23.5156 37.8904 17.9219 37.8904 12.3359 37.8826C12.1406 37.8826 11.9375 37.8826 11.75 37.8435C11.4062 37.7732 11.2422 37.531 11.2422 37.1873C11.25 36.8513 11.4531 36.6638 11.7734 36.617C11.9688 36.5857 12.1641 36.5935 12.3594 36.5935C20 36.5935 27.6406 36.5935 35.2812 36.5935C36.6641 36.5935 37.5938 35.9763 37.9375 34.7966C38.0312 34.4841 38.0625 34.1404 38.0625 33.8123C38.0703 27.242 38.0703 20.6716 38.0625 14.1013C38.0625 12.4763 36.9922 11.4138 35.3672 11.4138C24.9375 11.4138 14.5078 11.4138 4.07812 11.4138C2.29688 11.4138 1.28125 12.4373 1.28125 14.2263C1.28125 20.7498 1.28125 27.281 1.28125 33.8045C1.28125 35.5779 2.28906 36.5935 4.05469 36.5935C5.5 36.5935 6.94531 36.5935 8.39844 36.5935C8.5625 36.5935 8.77344 36.5545 8.88281 36.6404C9.07031 36.7966 9.3125 37.0232 9.32031 37.2263C9.32031 37.4295 9.09375 37.6795 8.90625 37.8201C8.77344 37.9216 8.53125 37.8826 8.33594 37.8904C6.92187 37.8904 5.5 37.8982 4.08594 37.8904C1.60156 37.8748 0.0234375 36.2888 0.0234375 33.8045C1.39698e-08 27.2029 0 20.617 0 14.031C0 12.0466 1.26562 10.4998 3.20312 10.1873C3.89844 10.0779 4.61719 10.1482 5.32031 10.1248C5.52344 10.117 5.74219 10.0857 5.92969 9.99977C11.7109 7.28102 17.4844 4.54664 23.2578 1.81227C24.1328 1.3982 25 0.984142 25.875 0.585705C27.6484 -0.226795 30.0469 0.187267 31.0156 2.3982C31.7969 4.17945 32.6641 5.91383 33.4922 7.67164C33.7188 8.15602 33.6562 8.46852 33.3125 8.6482C32.9375 8.84352 32.5781 8.68727 32.3359 8.20289C31.9922 7.49977 31.6641 6.78883 31.3281 6.07789C31.2656 5.94508 31.1953 5.82008 31.1094 5.65602ZM8.89062 10.0388C8.89844 10.0701 8.90625 10.0935 8.91406 10.1248C8.97656 10.1326 9.03125 10.1326 9.09375 10.1326C12.1562 10.1326 15.2109 10.1326 18.2734 10.1248C18.4609 10.1248 18.6641 10.0701 18.8281 9.99195C22.2969 8.37477 25.7578 6.74977 29.2188 5.13258C29.6641 4.92164 30.1016 4.70289 30.5625 4.48414C30.3438 4.00758 30.1328 3.57789 29.9297 3.14039C29.2188 1.57789 27.8359 1.07008 26.2734 1.81227C21.3594 4.13258 16.4453 6.4607 11.5312 8.78102C10.6484 9.19508 9.76562 9.61695 8.89062 10.0388Z" fill="#262626"/>
<path d="M23.9522 30.3595C23.9678 27.8517 26.5304 26.172 28.8429 27.1251C29.0304 27.2032 29.3116 27.1954 29.4991 27.1173C30.9835 26.5157 32.6788 26.9767 33.6632 28.2814C34.6085 29.5314 34.5929 31.3048 33.6319 32.5314C32.6085 33.8282 30.9366 34.2501 29.4522 33.6251C29.2882 33.5548 29.046 33.5626 28.8819 33.6251C26.5304 34.6173 23.9366 32.8985 23.9522 30.3595ZM25.2257 30.3595C25.2178 31.6095 26.1866 32.6017 27.4366 32.6173C28.6944 32.6329 29.6866 31.6642 29.7022 30.4064C29.7179 29.1642 28.7413 28.1564 27.4835 28.1407C26.2491 28.1329 25.2413 29.1173 25.2257 30.3595ZM30.3272 28.2501C31.2335 30.0626 31.2335 30.422 30.3429 32.5157C31.1319 32.7892 32.0694 32.4767 32.6163 31.7579C33.2257 30.961 33.2491 29.9376 32.6866 29.1017C32.1632 28.3439 31.21 27.9923 30.3272 28.2501Z" fill="#262626"/>
<path d="M6.9834 13.8516C7.4834 13.8516 7.97559 13.8438 8.47559 13.8516C9.60059 13.875 10.4053 14.6641 10.4287 15.7891C10.4443 16.8125 10.4443 17.836 10.4287 18.8594C10.4131 19.961 9.65527 20.75 8.56152 20.7813C7.49121 20.8125 6.4209 20.8125 5.3584 20.7813C4.25684 20.7422 3.51465 19.961 3.49902 18.8516C3.4834 17.8281 3.4834 16.8047 3.49902 15.7813C3.51465 14.6641 4.33496 13.8672 5.45996 13.8438C5.95996 13.8438 6.47559 13.8516 6.9834 13.8516ZM9.14746 17.3359C9.13965 16.8359 9.15527 16.3438 9.13965 15.8438C9.12402 15.375 8.91309 15.1406 8.45215 15.1328C7.45996 15.1172 6.46777 15.1172 5.46777 15.1328C5.02246 15.1406 4.78809 15.3594 4.78027 15.7969C4.76465 16.8047 4.76465 17.8125 4.78027 18.8203C4.78809 19.2813 4.99121 19.4922 5.45215 19.5C6.45996 19.5156 7.46777 19.5235 8.47559 19.5078C8.94434 19.5 9.13965 19.2735 9.14746 18.7813C9.15527 18.2969 9.14746 17.8203 9.14746 17.3359Z" fill="#262626"/>
<path d="M10.0935 32.9612C8.49979 32.9612 6.90604 32.9612 5.30448 32.9612C5.12479 32.9612 4.90604 33.0081 4.77323 32.9221C4.5701 32.7893 4.31229 32.5706 4.29667 32.3752C4.28104 32.1721 4.5076 31.9299 4.67166 31.7502C4.74979 31.6643 4.95292 31.6877 5.10135 31.6877C8.41385 31.6877 11.7264 31.6877 15.0389 31.6877C15.1717 31.6877 15.3123 31.6799 15.4451 31.7112C15.781 31.7893 15.9607 32.0159 15.9451 32.3674C15.9217 32.7112 15.7342 32.9377 15.3748 32.9534C14.8904 32.9768 14.4139 32.969 13.9295 32.969C12.6482 32.9612 11.367 32.9612 10.0935 32.9612Z" fill="#262626"/>
<path d="M7.14665 28.8985C7.83415 28.8985 8.52946 28.8907 9.21696 28.8985C9.70133 28.9063 9.93571 29.1094 9.95133 29.5079C9.96696 29.9219 9.72477 30.1797 9.2404 30.1876C7.82634 30.1954 6.41227 30.1954 5.00602 30.1876C4.54508 30.1797 4.27165 29.8985 4.27946 29.5001C4.28727 29.1172 4.52946 28.9141 5.02946 28.9141C5.73259 28.8985 6.43571 28.9063 7.14665 28.8985C7.14665 28.9063 7.14665 28.9063 7.14665 28.8985Z" fill="#262626"/>
<path d="M32.0312 24.0625C32.0469 23.8672 32.0469 23.6719 32.0937 23.4844C32.1641 23.1641 32.3906 22.9922 32.7109 23C33.0391 23 33.2656 23.1875 33.3047 23.5156C33.3438 23.8594 33.3438 24.2031 33.3281 24.5547C33.3125 24.9297 33.1016 25.1484 32.7266 25.1562C32.3359 25.1719 32.1016 24.9609 32.0625 24.5703C32.0469 24.4063 32.0625 24.2422 32.0625 24.0703C32.0469 24.0625 32.0391 24.0625 32.0312 24.0625Z" fill="#262626"/>
<path d="M11.9912 24.094C11.9834 24.2737 11.9834 24.4533 11.96 24.633C11.9131 24.969 11.7022 25.1408 11.374 25.1487C11.0303 25.1643 10.7725 24.9924 10.7334 24.6487C10.6943 24.2815 10.6943 23.8987 10.7334 23.5315C10.7725 23.1877 11.0068 22.9924 11.3584 23.0002C11.71 23.008 11.9131 23.2112 11.96 23.5549C11.9834 23.7346 11.9834 23.9143 11.9912 24.094Z" fill="#262626"/>
<path d="M16.6388 24.0545C16.6388 24.2342 16.6544 24.4139 16.6388 24.5935C16.5997 24.9685 16.3575 25.1482 16.006 25.156C15.6622 25.156 15.4278 24.9685 15.3966 24.6248C15.3653 24.2967 15.3653 23.9685 15.3888 23.6404C15.4122 23.2342 15.7013 22.9686 16.0528 22.9998C16.4435 23.0389 16.631 23.2732 16.6544 23.656C16.6466 23.781 16.6466 23.9139 16.6388 24.0545Z" fill="#262626"/>
<path d="M35.7344 24.1093C35.7344 24.2734 35.75 24.4375 35.7344 24.6015C35.6875 24.9765 35.4531 25.1562 35.0859 25.1562C34.7422 25.1562 34.5078 24.9687 34.4766 24.6171C34.4453 24.2734 34.4453 23.9296 34.4766 23.5859C34.5078 23.2265 34.7266 23.0078 35.0938 23C35.4609 22.9921 35.6797 23.2109 35.7266 23.5703C35.75 23.7421 35.7344 23.9296 35.7344 24.1093Z" fill="#262626"/>
<path d="M22.5693 24.0938C22.5771 23.8985 22.5693 23.7032 22.6084 23.5157C22.6631 23.1954 22.8818 23.0157 23.1943 23C23.5147 22.9844 23.7725 23.1485 23.8115 23.4688C23.8662 23.8672 23.874 24.2735 23.8272 24.6719C23.7881 25.0157 23.5225 25.1797 23.1787 25.1563C22.8428 25.1328 22.624 24.9453 22.5928 24.5938C22.5772 24.4297 22.5928 24.2657 22.5928 24.1016C22.585 24.0938 22.5771 24.0938 22.5693 24.0938Z" fill="#262626"/>
<path d="M30.921 24.0781C30.921 24.2422 30.9366 24.4141 30.921 24.5781C30.882 24.9453 30.6554 25.1562 30.2882 25.1484C29.921 25.1406 29.6945 24.9453 29.6632 24.5703C29.6398 24.2734 29.6398 23.9687 29.6554 23.6641C29.6789 23.25 29.9367 22.9844 30.296 22.9844C30.6554 22.9844 30.8976 23.2422 30.9288 23.6719C30.9366 23.8047 30.9288 23.9453 30.921 24.0781Z" fill="#262626"/>
<path d="M28.5159 24.1095C28.5159 24.2736 28.5315 24.4454 28.5159 24.6017C28.4769 24.9532 28.2581 25.1407 27.9144 25.1486C27.5628 25.1642 27.3206 24.9767 27.2815 24.6329C27.2425 24.2658 27.2503 23.8829 27.2894 23.5079C27.3284 23.1642 27.5706 22.9689 27.9222 22.9845C28.2659 23.0001 28.469 23.2111 28.5159 23.5548C28.5394 23.7345 28.5394 23.9142 28.5472 24.0939C28.5315 24.1095 28.5237 24.1095 28.5159 24.1095Z" fill="#262626"/>
<path d="M21.4443 24.1015C21.4443 24.2499 21.4522 24.4062 21.4443 24.5546C21.4209 24.9296 21.21 25.1327 20.8428 25.1562C20.4834 25.1796 20.21 24.9374 20.1865 24.5624C20.1631 24.2499 20.1631 23.9296 20.1865 23.6171C20.2256 23.2421 20.4443 22.9921 20.835 22.9999C21.2334 23.0077 21.4209 23.2734 21.4443 23.6484C21.4522 23.7968 21.4443 23.9531 21.4443 24.1015Z" fill="#262626"/>
<path d="M5.87598 24.0784C5.89941 23.8752 5.8916 23.6643 5.93848 23.4612C6.00879 23.1409 6.25879 22.9377 6.56348 23.0081C6.78223 23.0627 7.07129 23.2815 7.11816 23.4768C7.21191 23.8596 7.18066 24.2815 7.1416 24.6799C7.11035 25.0081 6.8291 25.2034 6.53223 25.1409C6.31348 25.094 6.0791 24.8987 5.94629 24.7034C5.84473 24.5471 5.89941 24.2971 5.87598 24.0784Z" fill="#262626"/>
<path d="M3.48535 24.094C3.49316 23.9143 3.48535 23.7268 3.5166 23.5549C3.5791 23.1877 3.80566 22.9924 4.17285 23.0002C4.52441 23.0159 4.73535 23.2268 4.75879 23.5705C4.79004 23.8987 4.78222 24.2346 4.7666 24.5627C4.74316 24.9377 4.5166 25.1408 4.14941 25.1486C3.75879 25.1486 3.53223 24.9377 3.50098 24.5393C3.49316 24.3908 3.50098 24.2346 3.50098 24.0862C3.49316 24.094 3.48535 24.094 3.48535 24.094Z" fill="#262626"/>
<path d="M19.0773 24.164C19.0617 24.3046 19.1008 24.5703 18.9914 24.7343C18.8586 24.9218 18.5773 25.1328 18.3742 25.1171C18.1789 25.1015 17.8898 24.8515 17.8274 24.6562C17.7336 24.3359 17.7805 23.9765 17.7961 23.6249C17.8117 23.2421 18.0227 22.9999 18.4211 22.9921C18.7961 22.9843 18.9914 23.2265 19.0461 23.5781C19.0695 23.7421 19.0617 23.914 19.0773 24.164Z" fill="#262626"/>
<path d="M9.56934 24.1015C9.56934 24.2812 9.60059 24.4687 9.56153 24.6406C9.49121 24.9843 9.25684 25.1562 8.91309 25.1484C8.56934 25.1327 8.34277 24.9452 8.31934 24.5859C8.2959 24.289 8.30371 23.9843 8.31152 23.6796C8.32715 23.2499 8.56934 22.9921 8.9209 22.9765C9.27246 22.9687 9.53809 23.2343 9.57715 23.6406C9.59278 23.789 9.57715 23.9452 9.57715 24.0937C9.57715 24.1015 9.56934 24.1015 9.56934 24.1015Z" fill="#262626"/>
</svg>
