<svg width="30" height="40" viewBox="0 0 30 40" fill="none" xmlns="http://www.w3.org/2000/svg">
<path d="M29.4072 9.39062C29.0869 9.39062 28.8213 9.65625 28.8213 9.97656V38.7812C28.8213 38.8047 28.8057 38.8203 28.7822 38.8203H1.21973C1.19629 38.8203 1.18066 38.8047 1.18066 38.7812V1.20312C1.18066 1.17969 1.19629 1.16406 1.21973 1.16406H21.9229V6.84375C21.9229 7.51562 22.4697 8.05469 23.1338 8.05469H29.3994C29.6338 8.05469 29.8525 7.91406 29.9385 7.69531C30.0322 7.47656 29.9775 7.22656 29.8135 7.05469L22.9307 0.171875C22.9229 0.164062 22.9228 0.164062 22.915 0.15625C22.8135 0.0625 22.6728 0 22.5244 0H1.21973C0.547852 0 0.00878906 0.546875 0.00878906 1.21094V38.7891C0.00878906 39.4609 0.555664 40 1.21973 40H28.7744C29.4463 40 29.9853 39.4531 29.9853 38.7891V9.97656C29.9932 9.65625 29.7275 9.39062 29.4072 9.39062ZM23.1025 2L27.9932 6.89062H23.1416C23.1182 6.89062 23.1025 6.875 23.1025 6.85156V2Z" fill="#262626"/>
<path d="M26.2354 14.3672C26.2354 14.0469 25.9697 13.7812 25.6494 13.7812H4.35254C4.03223 13.7812 3.7666 14.0469 3.7666 14.3672V25.6406C3.7666 25.9609 4.03223 26.2266 4.35254 26.2266H25.6416C25.9619 26.2266 26.2275 25.9609 26.2275 25.6406L26.2354 14.3672ZM15.04 25.0469H4.93848V22.4609H15.04V25.0469ZM15.04 21.2969H4.93848V18.7109H15.04V21.2969ZM15.04 17.5391H4.93848V14.9531H15.04V17.5391ZM20.0479 25.0469H16.2119V22.4609H20.0479V25.0469ZM20.0479 21.2969H16.2119V18.7109H20.0479V21.2969ZM20.0479 17.5391H16.2119V14.9531H20.0479V17.5391ZM25.0635 25.0469H21.2275V22.4609H25.0635V25.0469ZM25.0635 21.2969H21.2275V18.7109H25.0635V21.2969ZM25.0635 17.5391H21.2275V14.9531H25.0635V17.5391Z" fill="#262626"/>
<path d="M25.6494 30.0623H20.6416C20.3213 30.0623 20.0557 30.3279 20.0557 30.6482C20.0557 30.9685 20.3213 31.2341 20.6416 31.2341H25.6494C25.9697 31.2341 26.2353 30.9685 26.2353 30.6482C26.2353 30.3279 25.9697 30.0623 25.6494 30.0623Z" fill="#262626"/>
<path d="M25.6494 32.5623H21.8916C21.5713 32.5623 21.3057 32.8279 21.3057 33.1482C21.3057 33.4685 21.5713 33.7341 21.8916 33.7341H25.6494C25.9697 33.7341 26.2353 33.4685 26.2353 33.1482C26.2353 32.8279 25.9697 32.5623 25.6494 32.5623Z" fill="#262626"/>
<path d="M15.3897 4.38257H12.8818C12.5615 4.38257 12.2959 4.64819 12.2959 4.96851C12.2959 5.28882 12.5615 5.55444 12.8818 5.55444H15.3897C15.71 5.55444 15.9756 5.28882 15.9756 4.96851C15.9756 4.64819 15.71 4.38257 15.3897 4.38257Z" fill="#262626"/>
<path d="M19.9287 6.89087H12.8818C12.5615 6.89087 12.2959 7.15649 12.2959 7.47681C12.2959 7.79712 12.5615 8.06274 12.8818 8.06274H19.9287C20.249 8.06274 20.5147 7.79712 20.5147 7.47681C20.5147 7.15649 20.2568 6.89087 19.9287 6.89087Z" fill="#262626"/>
<path d="M17.2647 9.39087H12.8818C12.5615 9.39087 12.2959 9.65649 12.2959 9.97681C12.2959 10.2971 12.5615 10.5627 12.8818 10.5627H17.2647C17.585 10.5627 17.8506 10.2971 17.8506 9.97681C17.8506 9.65649 17.5928 9.39087 17.2647 9.39087Z" fill="#262626"/>
<path d="M7.56348 10.3279H6.21192C6.07911 10.3279 5.96192 10.4373 5.96192 10.5779V11.6013C5.96192 11.7341 5.85254 11.8513 5.71192 11.8513H5.15723C5.02442 11.8513 4.90723 11.7419 4.90723 11.6013V10.5779C4.90723 10.4451 4.79785 10.3279 4.65723 10.3279H4.00879C3.87598 10.3279 3.75879 10.2185 3.75879 10.0779V9.71069C3.75879 9.57788 3.86816 9.46069 4.00879 9.46069H4.65723C4.79004 9.46069 4.90723 9.35132 4.90723 9.21069V8.95288C4.90723 8.82007 4.79785 8.70288 4.65723 8.70288H4.00879C3.87598 8.70288 3.75879 8.59351 3.75879 8.45288V8.08569C3.75879 7.95288 3.86816 7.83569 4.00879 7.83569H4.65723C4.79004 7.83569 4.90723 7.72632 4.90723 7.58569V4.06226C4.90723 3.92944 5.0166 3.81226 5.15723 3.81226H7.86817C8.72755 3.81226 9.40724 4.03101 9.91505 4.46851C10.4151 4.90601 10.6729 5.49976 10.6729 6.24194C10.6729 7.02319 10.4307 7.63257 9.9463 8.05444C9.46192 8.47632 8.77442 8.69507 7.8838 8.69507H6.20411C6.07129 8.69507 5.95411 8.80444 5.95411 8.94507V9.20288C5.95411 9.33569 6.06348 9.45288 6.20411 9.45288H7.55567C7.68848 9.45288 7.80567 9.56226 7.80567 9.70288V10.0701C7.81348 10.2107 7.70411 10.3279 7.56348 10.3279ZM5.96192 7.58569C5.96192 7.71851 6.07129 7.83569 6.21192 7.83569H7.87598C8.4463 7.83569 8.87599 7.70288 9.18067 7.42944C9.47755 7.16382 9.62599 6.76538 9.62599 6.24976C9.62599 5.78101 9.46974 5.40601 9.16505 5.11694C8.85255 4.82788 8.43849 4.67944 7.91505 4.67944H6.21973C6.08692 4.67944 5.96973 4.78882 5.96973 4.92944V7.58569H5.96192Z" fill="#262626"/>
</svg>
