<svg width="55" height="24" viewBox="0 0 55 24" fill="none" xmlns="http://www.w3.org/2000/svg">
<path d="M11.0463 3.0289C11.6799 2.23422 12.1202 1.16032 12.0021 0.0649414C11.0678 0.107897 9.92945 0.677064 9.26363 1.48249C8.67298 2.16978 8.14677 3.28664 8.28637 4.32832C9.3388 4.41423 10.3912 3.80211 11.0463 3.0289Z" fill="#262626"/>
<path d="M11.9908 4.53213C10.4659 4.44622 9.17719 5.39125 8.44693 5.39125C7.71668 5.39125 6.61056 4.57509 5.39705 4.59657C3.82915 4.61805 2.37939 5.50938 1.5847 6.91619C-0.0476317 9.74054 1.15514 13.918 2.74451 16.2162C3.51772 17.3545 4.45202 18.6002 5.67627 18.5573C6.83608 18.5143 7.28712 17.8055 8.69393 17.8055C10.1007 17.8055 10.5088 18.5573 11.7331 18.5358C13.0003 18.5143 13.8057 17.3974 14.5682 16.2591C15.4595 14.9597 15.8139 13.714 15.8354 13.6495C15.8139 13.6281 13.3869 12.6938 13.3547 9.90163C13.3332 7.56053 15.2662 6.44367 15.3521 6.37924C14.289 4.75765 12.5815 4.57509 11.9908 4.53213Z" fill="#262626"/>
<path d="M25.254 1.36401C28.5616 1.36401 30.8704 3.64069 30.8704 6.96978C30.8704 10.2989 28.5186 12.597 25.1788 12.597H21.5168V18.4283H18.875V1.36401H25.254ZM21.5061 10.3633H24.5452C26.8541 10.3633 28.1642 9.11758 28.1642 6.96978C28.1642 4.82198 26.8541 3.58699 24.5559 3.58699H21.5061V10.3633Z" fill="#262626"/>
<path d="M31.5566 14.8847C31.5566 12.7155 33.2212 11.3731 36.1744 11.212L39.5787 11.008V10.0522C39.5787 8.66686 38.6444 7.83995 37.0872 7.83995C35.6052 7.83995 34.6924 8.54873 34.4669 9.65484H32.0614C32.201 7.4104 34.1125 5.75659 37.1946 5.75659C40.2123 5.75659 42.1346 7.3567 42.1346 9.84815V18.4179H39.6861V16.3775H39.6324C38.9129 17.7628 37.345 18.6326 35.7126 18.6326C33.2534 18.6326 31.5566 17.1184 31.5566 14.8847ZM39.5787 13.7571V12.7799L36.5181 12.9732C34.9931 13.0806 34.134 13.7571 34.134 14.8203C34.134 15.9049 35.0361 16.6137 36.3999 16.6137C38.1826 16.603 39.5787 15.3787 39.5787 13.7571Z" fill="#262626"/>
<path d="M44.4323 22.9928V20.9201C44.6256 20.9631 45.0444 20.9631 45.2592 20.9631C46.4405 20.9631 47.0741 20.4691 47.4714 19.1912C47.4714 19.1697 47.6969 18.4394 47.6969 18.418L43.208 5.97144H45.9679L49.1145 16.0876H49.1574L52.304 5.97144H54.9995L50.3387 19.0516C49.2756 22.0692 48.0513 23.0357 45.4739 23.0357C45.2592 23.0465 44.6148 23.025 44.4323 22.9928Z" fill="#262626"/>
</svg>
