<svg width="60" height="25" viewBox="0 0 60 25" fill="none" xmlns="http://www.w3.org/2000/svg">
<path d="M28.3783 4.01106V10.023H32.0873C32.9721 10.023 33.6994 9.72003 34.2812 9.13822C34.8751 8.54429 35.166 7.84128 35.166 7.01705C35.166 6.21707 34.8751 5.51406 34.2812 4.92013C33.6994 4.31408 32.9721 4.01106 32.0873 4.01106H28.3783ZM28.3783 12.1442V19.1259H26.1602V1.88989H32.0388C33.5297 1.88989 34.8024 2.38685 35.8448 3.38077C36.9115 4.37469 37.4327 5.58678 37.4327 7.01705C37.4327 8.47157 36.8993 9.69578 35.8448 10.6776C34.8145 11.6594 33.554 12.1442 32.0388 12.1442H28.3783Z" fill="#5F6368"/>
<path d="M39.6762 15.5141C39.6762 16.0959 39.9186 16.5686 40.4156 16.9565C40.9004 17.3444 41.4822 17.5383 42.1368 17.5383C43.0701 17.5383 43.8943 17.1989 44.6337 16.508C45.3609 15.8171 45.7246 15.005 45.7246 14.0838C45.0337 13.5384 44.0761 13.2596 42.8398 13.2596C41.9428 13.2596 41.1913 13.4778 40.5853 13.9141C39.9792 14.3384 39.6762 14.8717 39.6762 15.5141ZM42.5489 6.94458C44.1852 6.94458 45.4822 7.38094 46.4276 8.25365C47.373 9.12636 47.8457 10.3263 47.8457 11.8536V19.1262H45.7246V17.4898H45.6276C44.7185 18.8353 43.4943 19.514 41.9671 19.514C40.6701 19.514 39.5792 19.1262 38.7065 18.3625C37.8338 17.5868 37.3975 16.6292 37.3975 15.4777C37.3975 14.2535 37.8581 13.2839 38.7793 12.5687C39.7004 11.8415 40.9368 11.4899 42.4761 11.4899C43.7973 11.4899 44.8761 11.7324 45.7246 12.2172V11.7081C45.7246 10.9445 45.4215 10.29 44.8155 9.74453C44.2094 9.2112 43.4943 8.94454 42.6701 8.94454C41.4337 8.94454 40.4519 9.46574 39.7368 10.5081L37.7853 9.28393C38.852 7.72032 40.4398 6.94458 42.5489 6.94458Z" fill="#5F6368"/>
<path d="M60.0007 7.32739L52.6069 24.321H50.3161L53.0675 18.3696L48.207 7.32739H50.607L54.1342 15.8H54.1705L57.6008 7.32739H60.0007Z" fill="#5F6368"/>
<path d="M19.4314 10.6385C19.4314 9.93553 19.3708 9.26887 19.2617 8.62646H9.9043V12.4446H15.2618C15.0315 13.693 14.3406 14.7475 13.286 15.4505V17.9232H16.486C18.3526 16.202 19.4314 13.6445 19.4314 10.6385Z" fill="#4285F4"/>
<path d="M9.90396 20.3116C12.5827 20.3116 14.8251 19.4389 16.4735 17.9238L13.2736 15.4511C12.3888 16.045 11.2373 16.3965 9.90396 16.3965C7.3222 16.3965 5.12831 14.6511 4.34044 12.3118H1.05566V14.8572C2.67987 18.0935 6.03738 20.3116 9.90396 20.3116Z" fill="#34A853"/>
<path d="M4.33931 12.3118C4.13325 11.7178 4.02416 11.0754 4.02416 10.4209C4.02416 9.76636 4.13325 9.12395 4.33931 8.53002V5.98462H1.05452C0.37575 7.31793 0 8.83305 0 10.433C0 12.033 0.37575 13.5481 1.05452 14.8814L4.33931 12.3118Z" fill="#FABB05"/>
<path d="M9.90396 4.43281C11.3585 4.43281 12.6675 4.92977 13.7099 5.91157L16.5341 3.08738C14.813 1.48741 12.5827 0.505615 9.90396 0.505615C6.03738 0.505615 2.67987 2.72375 1.05566 5.96005L4.35257 8.50546C5.12831 6.17823 7.3222 4.43281 9.90396 4.43281Z" fill="#E94235"/>
</svg>
