<svg width="30" height="23" viewBox="0 0 30 23" fill="none" xmlns="http://www.w3.org/2000/svg">
<path d="M6.1325 0L5.89875 0.781L1.28875 17.781L0.9375 19H7.03125L6.28875 21.781L5.9375 23H14.6488L14.8438 22.187L16.1325 17.375H19.4925C24.1938 17.375 28.325 14.93 29.375 11C29.9263 8.934 29.3412 7.184 28.125 6C27.1375 5.04 25.8 4.46 24.4137 4.187C24.145 3.199 23.5788 2.359 22.8125 1.719C21.3913 0.535 19.4188 0 17.5775 0H6.1325ZM8.16375 2H17.5775C18.8038 2 20.1562 2.379 21.015 3.094C21.875 3.809 22.3775 4.828 21.915 6.563C21.09 9.656 18.1688 11.375 14.4925 11.375H9.1L8.905 12.156L7.6175 17H4.0625L8.16375 2ZM11.3275 3.469L11.0938 4.25L9.805 8.875L9.45375 10.094H13.8663C16.0888 10.094 18.0075 8.801 18.5538 7.063H18.5938C18.5987 7.043 18.5888 7.02 18.5938 7C18.8675 6.125 18.6912 5.227 18.0863 4.562C17.4662 3.882 16.4213 3.469 15.3125 3.469H11.3275ZM13.32 5.469H15.3125C15.7037 5.469 15.9087 5.559 16.055 5.719C16.2013 5.879 16.3038 6.137 16.1713 6.531V6.562C15.9375 7.372 14.7413 8.094 13.8675 8.094H12.5787L13.32 5.469ZM24.4925 6.344C25.1512 6.559 25.7712 6.852 26.2113 7.281C26.9387 7.988 27.3388 8.965 26.9137 10.562C26.0888 13.656 23.1688 15.375 19.4925 15.375H14.1L13.905 16.156L12.6175 21H9.0625L9.61 19H9.6475L9.84375 18.187L11.1325 13.375H14.4925C19.1938 13.375 23.325 10.93 24.375 7C24.4338 6.773 24.4575 6.562 24.4925 6.344Z" fill="#262626"/>
</svg>
