<svg width="32" height="40" viewBox="0 0 32 40" fill="none" xmlns="http://www.w3.org/2000/svg">
<path d="M31.1709 23.9608H30.2959V19.2968C30.2959 17.5546 28.8818 16.1405 27.1396 16.1405H26.0771L29.1631 10.2968C29.4834 9.68741 29.5459 8.99209 29.3428 8.33584C29.1396 7.67959 28.6865 7.14053 28.0771 6.82022L16.21 0.57022C14.9521 -0.093843 13.3896 0.390532 12.7256 1.64834L5.07715 16.1405H3.1709C1.42871 16.1405 0.0146484 17.5546 0.0146484 19.2968V36.3827C0.0146484 38.1249 1.42871 39.539 3.1709 39.539H27.1396C28.8818 39.539 30.2959 38.1249 30.2959 36.3827V31.7187H31.1709C31.5928 31.7187 31.9365 31.3749 31.9365 30.953V24.7265C31.9365 24.3046 31.5928 23.9608 31.1709 23.9608ZM14.085 2.36709C14.3506 1.85928 14.9912 1.66397 15.499 1.92959L27.3662 8.17178C27.6162 8.30459 27.7959 8.52334 27.8818 8.78897C27.9678 9.05459 27.9365 9.33584 27.8115 9.58584L24.3428 16.1483H22.2803L24.2334 12.4452C24.3271 12.2655 24.3506 12.0546 24.2881 11.8593C24.2256 11.664 24.0928 11.4999 23.9131 11.4062C23.4131 11.1405 23.0381 10.6952 22.874 10.1562C22.71 9.61709 22.7568 9.04678 23.0225 8.54678C23.1162 8.36709 23.1397 8.15616 23.0771 7.96084C23.0146 7.76553 22.8818 7.60147 22.7021 7.50772L18.6787 5.39053C18.3037 5.19522 17.8428 5.33584 17.6475 5.71084C17.1006 6.74209 15.8115 7.14053 14.7725 6.60147C14.3975 6.40616 13.9365 6.54678 13.7412 6.92178L8.86621 16.1483H6.80371L14.085 2.36709ZM21.4131 10.6015C21.624 11.2812 22.0225 11.8749 22.5615 12.328L20.5459 16.1405H10.6006L14.7725 8.23428C16.1553 8.62491 17.6475 8.15616 18.5693 7.06241L21.3818 8.53897C21.1943 9.20303 21.2021 9.91397 21.4131 10.6015ZM28.7568 36.3827C28.7568 37.2812 28.0303 38.0077 27.1318 38.0077H3.1709C2.27246 38.0077 1.5459 37.2812 1.5459 36.3827V19.2968C1.5459 18.3983 2.27246 17.6718 3.1709 17.6718H27.1396C28.0381 17.6718 28.7646 18.3983 28.7646 19.2968V23.9608H25.7646C23.624 23.9608 21.8818 25.703 21.8818 27.8437C21.8818 29.9843 23.624 31.7187 25.7646 31.7187H28.7568V36.3827ZM30.4053 30.1874H25.7646C24.4678 30.1874 23.4209 29.1327 23.4209 27.8437C23.4209 26.5546 24.4756 25.4999 25.7646 25.4999H30.4053V30.1874Z" fill="#262626"/>
</svg>
